<?xml version="1.0" standalone="no"?>
<!DOCTYPE svg PUBLIC "-//W3C//DTD SVG 20010904//EN"
 "http://www.w3.org/TR/2001/REC-SVG-20010904/DTD/svg10.dtd">
<svg version="1.0" xmlns="http://www.w3.org/2000/svg"
 width="200.000000pt" height="142.000000pt" viewBox="0 0 200.000000 142.000000"
 preserveAspectRatio="xMidYMid meet">

<g transform="translate(0.000000,142.000000) scale(0.100000,-0.100000)"
fill="##FFFFFF" stroke="none">
<path d="M0 710 l0 -710 1000 0 1000 0 0 710 0 710 -1000 0 -1000 0 0 -710z
m530 -290 l0 -180 -180 0 -180 0 0 180 0 180 180 0 180 0 0 -180z m1300 0 l0
-180 -645 0 -645 0 0 180 0 180 645 0 645 0 0 -180z"/>
<path d="M246 524 c-12 -12 -16 -37 -16 -104 0 -116 4 -120 120 -120 116 0
120 4 120 120 0 116 -4 120 -120 120 -67 0 -92 -4 -104 -16z m196 -11 c10 -9
18 -24 18 -34 0 -15 -12 -17 -110 -17 -93 0 -110 2 -110 16 0 8 7 24 17 34 22
25 157 26 185 1z m-142 -101 c0 -35 16 -52 52 -52 31 0 64 40 54 65 -4 11 2
15 24 15 29 0 30 -2 30 -47 0 -70 -17 -83 -108 -83 -95 0 -112 13 -112 82 0
47 1 48 30 48 26 0 30 -4 30 -28z m77 12 c3 -8 -2 -23 -11 -32 -15 -15 -17
-15 -32 0 -21 21 -11 48 16 48 11 0 23 -7 27 -16z"/>
<path d="M413 503 c-18 -7 -16 -23 2 -23 8 0 15 7 15 15 0 8 -1 15 -2 14 -2 0
-9 -3 -15 -6z"/>
<path d="M1260 445 c0 -60 3 -75 15 -75 12 0 15 15 15 75 0 60 -3 75 -15 75
-12 0 -15 -15 -15 -75z"/>
<path d="M1620 445 c0 -59 3 -75 14 -75 10 0 16 13 18 38 3 34 6 37 33 37 27
0 30 -3 33 -37 4 -49 32 -53 32 -5 0 48 -21 71 -64 71 -31 0 -36 3 -36 23 0
14 -6 23 -15 23 -12 0 -15 -15 -15 -75z"/>
<path d="M630 451 c0 -64 9 -77 56 -87 21 -4 37 0 57 16 23 19 27 29 27 76 0
41 -4 54 -15 54 -11 0 -15 -12 -15 -49 0 -54 -15 -74 -52 -69 -21 3 -23 9 -26
61 -2 42 -7 57 -17 57 -12 0 -15 -14 -15 -59z"/>
<path d="M804 471 c-2 -2 -4 -26 -4 -53 0 -35 4 -48 14 -48 10 0 16 13 18 38
3 34 6 37 33 37 27 0 30 -3 33 -37 2 -27 8 -38 19 -38 13 0 15 8 10 41 -3 23
-10 46 -15 51 -10 10 -99 17 -108 9z"/>
<path d="M982 469 c-17 -6 -22 -15 -20 -31 2 -19 10 -24 46 -26 23 -2 42 -8
42 -14 0 -7 -16 -9 -45 -6 -53 6 -65 -16 -14 -26 40 -8 84 13 84 39 0 16 -8
21 -42 23 -52 4 -58 22 -8 22 39 0 47 14 13 24 -28 7 -27 7 -56 -5z"/>
<path d="M1133 473 l-33 -4 0 -75 c0 -59 3 -74 15 -74 9 0 15 9 15 23 0 19 5
23 34 23 43 0 66 19 66 55 0 27 -32 61 -55 57 -5 0 -25 -3 -42 -5z m67 -38
c17 -20 -3 -45 -37 -45 -25 0 -39 20 -29 45 3 8 16 15 29 15 14 0 30 -7 37
-15z"/>
<path d="M1348 473 c-33 -8 -18 -23 22 -23 22 0 40 -4 40 -9 0 -5 -15 -9 -34
-9 -43 0 -56 -8 -56 -32 0 -28 33 -41 80 -34 39 6 40 8 40 45 0 54 -35 77 -92
62z m67 -73 c-3 -5 -19 -10 -36 -10 -16 0 -29 5 -29 10 0 6 16 10 36 10 21 0
33 -4 29 -10z"/>
<path d="M1502 469 c-17 -6 -22 -15 -20 -31 2 -19 10 -24 46 -26 23 -2 42 -8
42 -14 0 -6 -18 -9 -45 -6 -52 4 -63 -16 -14 -26 40 -8 84 13 84 39 0 16 -8
21 -42 23 -52 4 -58 22 -8 22 39 0 47 14 13 24 -28 7 -27 7 -56 -5z"/>
</g>
</svg>
